<mxfile host="Electron" modified="2023-11-20T12:18:04.239Z" agent="Mozilla/5.0 (X11; Linux x86_64) AppleWebKit/537.36 (KHTML, like Gecko) draw.io/22.1.2 Chrome/114.0.5735.289 Electron/25.9.4 Safari/537.36" etag="cO6h-kVPF7L3B0IAbKrS" version="22.1.2" type="device">
  <diagram name="Page-1" id="xiNtBj1zYrChUrvKEtlB">
    <mxGraphModel dx="1014" dy="805" grid="1" gridSize="10" guides="1" tooltips="1" connect="1" arrows="1" fold="1" page="1" pageScale="1" pageWidth="850" pageHeight="1100" math="0" shadow="0">
      <root>
        <mxCell id="0" />
        <mxCell id="1" parent="0" />
        <mxCell id="jeoagDOcB8_jfxPzOgwM-4" style="edgeStyle=orthogonalEdgeStyle;rounded=0;orthogonalLoop=1;jettySize=auto;html=1;entryX=0.5;entryY=0;entryDx=0;entryDy=0;" edge="1" parent="1" source="jeoagDOcB8_jfxPzOgwM-1" target="jeoagDOcB8_jfxPzOgwM-3">
          <mxGeometry relative="1" as="geometry" />
        </mxCell>
        <mxCell id="jeoagDOcB8_jfxPzOgwM-1" value="" style="rounded=0;whiteSpace=wrap;html=1;" vertex="1" parent="1">
          <mxGeometry x="80" y="110" width="120" height="60" as="geometry" />
        </mxCell>
        <mxCell id="jeoagDOcB8_jfxPzOgwM-2" value="Init Raspberry" style="text;html=1;align=center;verticalAlign=middle;resizable=0;points=[];autosize=1;strokeColor=none;fillColor=none;" vertex="1" parent="1">
          <mxGeometry x="210" y="125" width="100" height="30" as="geometry" />
        </mxCell>
        <mxCell id="jeoagDOcB8_jfxPzOgwM-10" style="edgeStyle=orthogonalEdgeStyle;rounded=0;orthogonalLoop=1;jettySize=auto;html=1;entryX=0.5;entryY=0;entryDx=0;entryDy=0;" edge="1" parent="1" source="jeoagDOcB8_jfxPzOgwM-3" target="jeoagDOcB8_jfxPzOgwM-8">
          <mxGeometry relative="1" as="geometry" />
        </mxCell>
        <mxCell id="jeoagDOcB8_jfxPzOgwM-3" value="" style="rounded=0;whiteSpace=wrap;html=1;" vertex="1" parent="1">
          <mxGeometry x="80" y="210" width="120" height="60" as="geometry" />
        </mxCell>
        <mxCell id="jeoagDOcB8_jfxPzOgwM-5" value="Wait" style="text;html=1;align=center;verticalAlign=middle;resizable=0;points=[];autosize=1;strokeColor=none;fillColor=none;" vertex="1" parent="1">
          <mxGeometry x="210" y="225" width="50" height="30" as="geometry" />
        </mxCell>
        <mxCell id="jeoagDOcB8_jfxPzOgwM-21" style="edgeStyle=orthogonalEdgeStyle;rounded=0;orthogonalLoop=1;jettySize=auto;html=1;" edge="1" parent="1" source="jeoagDOcB8_jfxPzOgwM-6" target="jeoagDOcB8_jfxPzOgwM-22">
          <mxGeometry relative="1" as="geometry">
            <mxPoint x="140" y="530" as="targetPoint" />
          </mxGeometry>
        </mxCell>
        <mxCell id="jeoagDOcB8_jfxPzOgwM-6" value="raw++" style="rounded=0;whiteSpace=wrap;html=1;" vertex="1" parent="1">
          <mxGeometry x="80" y="430" width="120" height="60" as="geometry" />
        </mxCell>
        <mxCell id="jeoagDOcB8_jfxPzOgwM-18" style="edgeStyle=orthogonalEdgeStyle;rounded=0;orthogonalLoop=1;jettySize=auto;html=1;entryX=0.5;entryY=0;entryDx=0;entryDy=0;" edge="1" parent="1" source="jeoagDOcB8_jfxPzOgwM-8" target="jeoagDOcB8_jfxPzOgwM-6">
          <mxGeometry relative="1" as="geometry" />
        </mxCell>
        <mxCell id="jeoagDOcB8_jfxPzOgwM-8" value="Is there&lt;br&gt;a file?" style="rhombus;whiteSpace=wrap;html=1;" vertex="1" parent="1">
          <mxGeometry x="100" y="310" width="80" height="80" as="geometry" />
        </mxCell>
        <mxCell id="jeoagDOcB8_jfxPzOgwM-14" value="" style="endArrow=none;html=1;rounded=0;exitX=0;exitY=0.5;exitDx=0;exitDy=0;" edge="1" parent="1" source="jeoagDOcB8_jfxPzOgwM-8">
          <mxGeometry width="50" height="50" relative="1" as="geometry">
            <mxPoint x="400" y="410" as="sourcePoint" />
            <mxPoint x="40" y="350" as="targetPoint" />
          </mxGeometry>
        </mxCell>
        <mxCell id="jeoagDOcB8_jfxPzOgwM-15" value="" style="endArrow=none;html=1;rounded=0;" edge="1" parent="1">
          <mxGeometry width="50" height="50" relative="1" as="geometry">
            <mxPoint x="40" y="350" as="sourcePoint" />
            <mxPoint x="40" y="240" as="targetPoint" />
          </mxGeometry>
        </mxCell>
        <mxCell id="jeoagDOcB8_jfxPzOgwM-16" value="" style="endArrow=classic;html=1;rounded=0;entryX=0;entryY=0.5;entryDx=0;entryDy=0;" edge="1" parent="1" target="jeoagDOcB8_jfxPzOgwM-3">
          <mxGeometry width="50" height="50" relative="1" as="geometry">
            <mxPoint x="40" y="240" as="sourcePoint" />
            <mxPoint x="450" y="360" as="targetPoint" />
          </mxGeometry>
        </mxCell>
        <mxCell id="jeoagDOcB8_jfxPzOgwM-17" value="No" style="text;html=1;align=center;verticalAlign=middle;resizable=0;points=[];autosize=1;strokeColor=none;fillColor=none;" vertex="1" parent="1">
          <mxGeometry x="60" y="328" width="40" height="30" as="geometry" />
        </mxCell>
        <mxCell id="jeoagDOcB8_jfxPzOgwM-19" value="Yes" style="text;html=1;align=center;verticalAlign=middle;resizable=0;points=[];autosize=1;strokeColor=none;fillColor=none;" vertex="1" parent="1">
          <mxGeometry x="140" y="398" width="40" height="30" as="geometry" />
        </mxCell>
        <mxCell id="jeoagDOcB8_jfxPzOgwM-20" value="Read data" style="text;html=1;align=center;verticalAlign=middle;resizable=0;points=[];autosize=1;strokeColor=none;fillColor=none;" vertex="1" parent="1">
          <mxGeometry x="210" y="445" width="80" height="30" as="geometry" />
        </mxCell>
        <mxCell id="jeoagDOcB8_jfxPzOgwM-25" value="" style="edgeStyle=orthogonalEdgeStyle;rounded=0;orthogonalLoop=1;jettySize=auto;html=1;" edge="1" parent="1" source="jeoagDOcB8_jfxPzOgwM-22" target="jeoagDOcB8_jfxPzOgwM-24">
          <mxGeometry relative="1" as="geometry" />
        </mxCell>
        <mxCell id="jeoagDOcB8_jfxPzOgwM-22" value="" style="rounded=0;whiteSpace=wrap;html=1;" vertex="1" parent="1">
          <mxGeometry x="80" y="540" width="120" height="60" as="geometry" />
        </mxCell>
        <mxCell id="jeoagDOcB8_jfxPzOgwM-23" value="Serial write" style="text;html=1;strokeColor=none;fillColor=none;align=center;verticalAlign=middle;whiteSpace=wrap;rounded=0;" vertex="1" parent="1">
          <mxGeometry x="220" y="550" width="70" height="30" as="geometry" />
        </mxCell>
        <mxCell id="jeoagDOcB8_jfxPzOgwM-31" value="" style="edgeStyle=orthogonalEdgeStyle;rounded=0;orthogonalLoop=1;jettySize=auto;html=1;" edge="1" parent="1" source="jeoagDOcB8_jfxPzOgwM-24" target="jeoagDOcB8_jfxPzOgwM-30">
          <mxGeometry relative="1" as="geometry" />
        </mxCell>
        <mxCell id="jeoagDOcB8_jfxPzOgwM-33" value="" style="edgeStyle=orthogonalEdgeStyle;rounded=0;orthogonalLoop=1;jettySize=auto;html=1;" edge="1" parent="1" source="jeoagDOcB8_jfxPzOgwM-24" target="jeoagDOcB8_jfxPzOgwM-32">
          <mxGeometry relative="1" as="geometry" />
        </mxCell>
        <mxCell id="jeoagDOcB8_jfxPzOgwM-24" value="End?" style="rhombus;whiteSpace=wrap;html=1;rounded=0;" vertex="1" parent="1">
          <mxGeometry x="100" y="640" width="80" height="80" as="geometry" />
        </mxCell>
        <mxCell id="jeoagDOcB8_jfxPzOgwM-30" value="Stop" style="rounded=0;whiteSpace=wrap;html=1;" vertex="1" parent="1">
          <mxGeometry x="220" y="650" width="120" height="60" as="geometry" />
        </mxCell>
        <mxCell id="jeoagDOcB8_jfxPzOgwM-32" value="" style="whiteSpace=wrap;html=1;rounded=0;" vertex="1" parent="1">
          <mxGeometry x="80" y="760" width="120" height="60" as="geometry" />
        </mxCell>
        <mxCell id="jeoagDOcB8_jfxPzOgwM-36" value="Delay" style="text;html=1;align=center;verticalAlign=middle;resizable=0;points=[];autosize=1;strokeColor=none;fillColor=none;" vertex="1" parent="1">
          <mxGeometry x="220" y="775" width="50" height="30" as="geometry" />
        </mxCell>
        <mxCell id="jeoagDOcB8_jfxPzOgwM-37" value="" style="endArrow=classic;html=1;rounded=0;exitX=0;exitY=0.5;exitDx=0;exitDy=0;entryX=0;entryY=0.5;entryDx=0;entryDy=0;" edge="1" parent="1" source="jeoagDOcB8_jfxPzOgwM-32" target="jeoagDOcB8_jfxPzOgwM-6">
          <mxGeometry width="50" height="50" relative="1" as="geometry">
            <mxPoint x="220" y="480" as="sourcePoint" />
            <mxPoint x="270" y="430" as="targetPoint" />
            <Array as="points">
              <mxPoint x="40" y="790" />
              <mxPoint x="40" y="460" />
            </Array>
          </mxGeometry>
        </mxCell>
        <mxCell id="jeoagDOcB8_jfxPzOgwM-41" value="" style="edgeStyle=orthogonalEdgeStyle;rounded=0;orthogonalLoop=1;jettySize=auto;html=1;" edge="1" parent="1" source="jeoagDOcB8_jfxPzOgwM-38" target="jeoagDOcB8_jfxPzOgwM-40">
          <mxGeometry relative="1" as="geometry" />
        </mxCell>
        <mxCell id="jeoagDOcB8_jfxPzOgwM-38" value="" style="rounded=0;whiteSpace=wrap;html=1;" vertex="1" parent="1">
          <mxGeometry x="550" y="110" width="120" height="60" as="geometry" />
        </mxCell>
        <mxCell id="jeoagDOcB8_jfxPzOgwM-39" value="Init MSP432" style="text;html=1;align=center;verticalAlign=middle;resizable=0;points=[];autosize=1;strokeColor=none;fillColor=none;" vertex="1" parent="1">
          <mxGeometry x="685" y="120" width="90" height="30" as="geometry" />
        </mxCell>
        <mxCell id="jeoagDOcB8_jfxPzOgwM-44" value="" style="edgeStyle=orthogonalEdgeStyle;rounded=0;orthogonalLoop=1;jettySize=auto;html=1;" edge="1" parent="1" source="jeoagDOcB8_jfxPzOgwM-40" target="jeoagDOcB8_jfxPzOgwM-43">
          <mxGeometry relative="1" as="geometry" />
        </mxCell>
        <mxCell id="jeoagDOcB8_jfxPzOgwM-40" value="" style="rounded=0;whiteSpace=wrap;html=1;" vertex="1" parent="1">
          <mxGeometry x="550" y="210" width="120" height="60" as="geometry" />
        </mxCell>
        <mxCell id="jeoagDOcB8_jfxPzOgwM-42" value="Signal wait" style="text;html=1;align=center;verticalAlign=middle;resizable=0;points=[];autosize=1;strokeColor=none;fillColor=none;" vertex="1" parent="1">
          <mxGeometry x="690" y="225" width="80" height="30" as="geometry" />
        </mxCell>
        <mxCell id="jeoagDOcB8_jfxPzOgwM-48" value="" style="edgeStyle=orthogonalEdgeStyle;rounded=0;orthogonalLoop=1;jettySize=auto;html=1;" edge="1" parent="1" source="jeoagDOcB8_jfxPzOgwM-43" target="jeoagDOcB8_jfxPzOgwM-47">
          <mxGeometry relative="1" as="geometry" />
        </mxCell>
        <mxCell id="jeoagDOcB8_jfxPzOgwM-43" value="Does data&lt;br&gt;occur?" style="rhombus;whiteSpace=wrap;html=1;rounded=0;" vertex="1" parent="1">
          <mxGeometry x="570" y="310" width="80" height="80" as="geometry" />
        </mxCell>
        <mxCell id="jeoagDOcB8_jfxPzOgwM-45" value="" style="endArrow=classic;html=1;rounded=0;exitX=1;exitY=0.5;exitDx=0;exitDy=0;entryX=1;entryY=0.75;entryDx=0;entryDy=0;" edge="1" parent="1" source="jeoagDOcB8_jfxPzOgwM-43" target="jeoagDOcB8_jfxPzOgwM-40">
          <mxGeometry width="50" height="50" relative="1" as="geometry">
            <mxPoint x="300" y="350" as="sourcePoint" />
            <mxPoint x="350" y="300" as="targetPoint" />
            <Array as="points">
              <mxPoint x="720" y="350" />
              <mxPoint x="720" y="255" />
            </Array>
          </mxGeometry>
        </mxCell>
        <mxCell id="jeoagDOcB8_jfxPzOgwM-46" value="No" style="text;html=1;align=center;verticalAlign=middle;resizable=0;points=[];autosize=1;strokeColor=none;fillColor=none;" vertex="1" parent="1">
          <mxGeometry x="640" y="318" width="40" height="30" as="geometry" />
        </mxCell>
        <mxCell id="jeoagDOcB8_jfxPzOgwM-52" value="" style="edgeStyle=orthogonalEdgeStyle;rounded=0;orthogonalLoop=1;jettySize=auto;html=1;" edge="1" parent="1" source="jeoagDOcB8_jfxPzOgwM-47" target="jeoagDOcB8_jfxPzOgwM-51">
          <mxGeometry relative="1" as="geometry" />
        </mxCell>
        <mxCell id="jeoagDOcB8_jfxPzOgwM-47" value="" style="whiteSpace=wrap;html=1;rounded=0;" vertex="1" parent="1">
          <mxGeometry x="550" y="428" width="120" height="60" as="geometry" />
        </mxCell>
        <mxCell id="jeoagDOcB8_jfxPzOgwM-49" value="Yes" style="text;html=1;align=center;verticalAlign=middle;resizable=0;points=[];autosize=1;strokeColor=none;fillColor=none;" vertex="1" parent="1">
          <mxGeometry x="610" y="390" width="40" height="30" as="geometry" />
        </mxCell>
        <mxCell id="jeoagDOcB8_jfxPzOgwM-50" value="Reading data" style="text;html=1;align=center;verticalAlign=middle;resizable=0;points=[];autosize=1;strokeColor=none;fillColor=none;" vertex="1" parent="1">
          <mxGeometry x="680" y="443" width="90" height="30" as="geometry" />
        </mxCell>
        <mxCell id="jeoagDOcB8_jfxPzOgwM-55" value="" style="edgeStyle=orthogonalEdgeStyle;rounded=0;orthogonalLoop=1;jettySize=auto;html=1;" edge="1" parent="1" source="jeoagDOcB8_jfxPzOgwM-51" target="jeoagDOcB8_jfxPzOgwM-54">
          <mxGeometry relative="1" as="geometry" />
        </mxCell>
        <mxCell id="jeoagDOcB8_jfxPzOgwM-51" value="" style="whiteSpace=wrap;html=1;rounded=0;" vertex="1" parent="1">
          <mxGeometry x="550" y="535" width="120" height="60" as="geometry" />
        </mxCell>
        <mxCell id="jeoagDOcB8_jfxPzOgwM-53" value="Actuation" style="text;html=1;align=center;verticalAlign=middle;resizable=0;points=[];autosize=1;strokeColor=none;fillColor=none;" vertex="1" parent="1">
          <mxGeometry x="680" y="550" width="70" height="30" as="geometry" />
        </mxCell>
        <mxCell id="jeoagDOcB8_jfxPzOgwM-54" value="loading++" style="whiteSpace=wrap;html=1;rounded=0;" vertex="1" parent="1">
          <mxGeometry x="550" y="640" width="120" height="60" as="geometry" />
        </mxCell>
        <mxCell id="jeoagDOcB8_jfxPzOgwM-56" value="LCD update" style="text;html=1;align=center;verticalAlign=middle;resizable=0;points=[];autosize=1;strokeColor=none;fillColor=none;" vertex="1" parent="1">
          <mxGeometry x="680" y="655" width="90" height="30" as="geometry" />
        </mxCell>
        <mxCell id="jeoagDOcB8_jfxPzOgwM-57" value="" style="endArrow=classic;html=1;rounded=0;exitX=0;exitY=0.5;exitDx=0;exitDy=0;entryX=0;entryY=0.5;entryDx=0;entryDy=0;" edge="1" parent="1" source="jeoagDOcB8_jfxPzOgwM-54" target="jeoagDOcB8_jfxPzOgwM-40">
          <mxGeometry width="50" height="50" relative="1" as="geometry">
            <mxPoint x="420" y="620" as="sourcePoint" />
            <mxPoint x="470" y="570" as="targetPoint" />
            <Array as="points">
              <mxPoint x="520" y="670" />
              <mxPoint x="520" y="240" />
            </Array>
          </mxGeometry>
        </mxCell>
        <mxCell id="jeoagDOcB8_jfxPzOgwM-58" value="" style="endArrow=none;dashed=1;html=1;rounded=0;" edge="1" parent="1">
          <mxGeometry width="50" height="50" relative="1" as="geometry">
            <mxPoint x="485" y="415" as="sourcePoint" />
            <mxPoint x="485" y="415" as="targetPoint" />
            <Array as="points">
              <mxPoint x="775" y="415" />
              <mxPoint x="775" y="725" />
              <mxPoint x="485" y="725" />
            </Array>
          </mxGeometry>
        </mxCell>
        <mxCell id="jeoagDOcB8_jfxPzOgwM-59" value="All of this is inside the IRQ handler" style="text;html=1;align=center;verticalAlign=middle;resizable=0;points=[];autosize=1;strokeColor=none;fillColor=none;" vertex="1" parent="1">
          <mxGeometry x="525" y="730" width="210" height="30" as="geometry" />
        </mxCell>
        <mxCell id="jeoagDOcB8_jfxPzOgwM-60" value="&lt;h2&gt;RASPBERRY PI0 FSM&lt;/h2&gt;" style="text;html=1;align=center;verticalAlign=middle;resizable=0;points=[];autosize=1;strokeColor=none;fillColor=none;" vertex="1" parent="1">
          <mxGeometry x="30" y="25" width="210" height="60" as="geometry" />
        </mxCell>
        <mxCell id="jeoagDOcB8_jfxPzOgwM-61" value="&lt;h2&gt;MSP432 FSM&lt;/h2&gt;" style="text;html=1;align=center;verticalAlign=middle;resizable=0;points=[];autosize=1;strokeColor=none;fillColor=none;" vertex="1" parent="1">
          <mxGeometry x="540" y="25" width="140" height="60" as="geometry" />
        </mxCell>
      </root>
    </mxGraphModel>
  </diagram>
</mxfile>
